<svg width="429" height="95" viewBox="0 0 429 95" fill="none" xmlns="http://www.w3.org/2000/svg">
<path d="M134.812 0.1875L152.125 74.875L172.875 0.1875H186.375L207.125 74.875L224.438 0.1875H238.062L213.938 92H200.875L179.688 15.875L158.375 92H145.312L121.312 0.1875H134.812ZM248.125 25.375H259.562V92H248.125V25.375ZM248.125 0.1875H259.562V12.9375H248.125V0.1875ZM276.625 25.0625H287.312V34.5625C290.479 30.6458 293.833 27.8333 297.375 26.125C300.917 24.4167 304.854 23.5625 309.188 23.5625C318.688 23.5625 325.104 26.875 328.438 33.5C330.271 37.125 331.188 42.3125 331.188 49.0625V92H319.75V49.8125C319.75 45.7292 319.146 42.4375 317.938 39.9375C315.938 35.7708 312.312 33.6875 307.062 33.6875C304.396 33.6875 302.208 33.9583 300.5 34.5C297.417 35.4167 294.708 37.25 292.375 40C290.5 42.2083 289.271 44.5 288.688 46.875C288.146 49.2083 287.875 52.5625 287.875 56.9375V92H276.625V25.0625ZM350.125 6.375H361.5V25.0625H372.188V34.25H361.5V77.9375C361.5 80.2708 362.292 81.8333 363.875 82.625C364.75 83.0833 366.208 83.3125 368.25 83.3125C368.792 83.3125 369.375 83.3125 370 83.3125C370.625 83.2708 371.354 83.2083 372.188 83.125V92C370.896 92.375 369.542 92.6458 368.125 92.8125C366.75 92.9792 365.25 93.0625 363.625 93.0625C358.375 93.0625 354.812 91.7292 352.938 89.0625C351.062 86.3542 350.125 82.8542 350.125 78.5625V34.25H341.062V25.0625H350.125V6.375ZM383.812 25.0625H394.5V36.625C395.375 34.375 397.521 31.6458 400.938 28.4375C404.354 25.1875 408.292 23.5625 412.75 23.5625C412.958 23.5625 413.312 23.5833 413.812 23.625C414.312 23.6667 415.167 23.75 416.375 23.875V35.75C415.708 35.625 415.083 35.5417 414.5 35.5C413.958 35.4583 413.354 35.4375 412.688 35.4375C407.021 35.4375 402.667 37.2708 399.625 40.9375C396.583 44.5625 395.062 48.75 395.062 53.5V92H383.812V25.0625Z" fill="#F0F2F2"/>
<rect y="53.8086" width="12.9883" height="53.8086" rx="6.49414" transform="rotate(-90 0 53.8086)" fill="#F0F2F2"/>
<rect x="18.5045" y="85.4941" width="12.9883" height="95" rx="6.49414" transform="rotate(-135 18.5045 85.4941)" fill="url(#paint0_linear_22_15)"/>
<rect x="40.8203" width="12.9883" height="95" rx="6.49414" fill="#F0F2F2"/>
<rect x="9.32043" y="18.3188" width="12.9883" height="95" rx="6.49414" transform="rotate(-45 9.32043 18.3188)" fill="url(#paint1_linear_22_15)"/>
<rect x="40.8203" y="53.8086" width="12.9883" height="54.1797" rx="6.49414" transform="rotate(-90 40.8203 53.8086)" fill="#F0F2F2"/>
<rect x="40.8203" width="12.9883" height="48.2422" rx="6.49414" fill="#6CAFD9"/>
<rect x="9.32043" y="18.3188" width="12.9883" height="53.8323" rx="6.49414" transform="rotate(-45 9.32043 18.3188)" fill="#6CAFD9"/>
<rect x="47.7371" y="56.3252" width="12.9883" height="53.5469" rx="6.49414" transform="rotate(-135 47.7371 56.3252)" fill="#6CAFD9"/>
<defs>
<linearGradient id="paint0_linear_22_15" x1="24.9987" y1="85.4941" x2="24.9987" y2="180.494" gradientUnits="userSpaceOnUse">
<stop offset="0.25" stop-color="#F0F2F2"/>
<stop offset="1" stop-color="#6CAFD9"/>
</linearGradient>
<linearGradient id="paint1_linear_22_15" x1="15.8146" y1="18.3188" x2="15.8146" y2="113.319" gradientUnits="userSpaceOnUse">
<stop stop-color="#6CAFD9"/>
<stop offset="0.75" stop-color="#F0F2F2"/>
</linearGradient>
</defs>
</svg>
