<svg width="95" height="95" viewBox="0 0 95 95" fill="none" xmlns="http://www.w3.org/2000/svg">
<rect y="53.8086" width="12.9883" height="53.8086" rx="6.49414" transform="rotate(-90 0 53.8086)" fill="#212121"/>
<rect x="18.5045" y="85.4937" width="12.9883" height="95" rx="6.49414" transform="rotate(-135 18.5045 85.4937)" fill="url(#paint0_linear_37_46)"/>
<rect x="40.8203" width="12.9883" height="95" rx="6.49414" fill="#212121"/>
<rect x="9.32037" y="18.3188" width="12.9883" height="95" rx="6.49414" transform="rotate(-45 9.32037 18.3188)" fill="url(#paint1_linear_37_46)"/>
<rect x="40.8203" y="53.8086" width="12.9883" height="54.1797" rx="6.49414" transform="rotate(-90 40.8203 53.8086)" fill="#212121"/>
<rect x="40.8203" width="12.9883" height="48.2422" rx="6.49414" fill="#6CAFD9"/>
<rect x="9.32037" y="18.3188" width="12.9883" height="53.8323" rx="6.49414" transform="rotate(-45 9.32037 18.3188)" fill="#6CAFD9"/>
<rect x="47.737" y="56.3247" width="12.9883" height="53.5469" rx="6.49414" transform="rotate(-135 47.737 56.3247)" fill="#6CAFD9"/>
<defs>
<linearGradient id="paint0_linear_37_46" x1="24.9986" y1="85.4937" x2="24.9986" y2="180.494" gradientUnits="userSpaceOnUse">
<stop offset="0.25" stop-color="#212121"/>
<stop offset="1" stop-color="#6CAFD9"/>
</linearGradient>
<linearGradient id="paint1_linear_37_46" x1="15.8145" y1="18.3188" x2="15.8145" y2="113.319" gradientUnits="userSpaceOnUse">
<stop stop-color="#6CAFD9"/>
<stop offset="0.75" stop-color="#212121"/>
</linearGradient>
</defs>
</svg>
